<svg id="svg" xmlns="http://www.w3.org/2000/svg" xmlns:xlink="http://www.w3.org/1999/xlink" width="400" height="400" viewBox="0, 0, 400,400"><g id="svgg"><path id="path0" d="M199.600 15.704 C 199.457 15.940,195.371 25.928,190.521 37.900 C 179.153 65.959,173.991 78.434,168.903 90.141 C 143.904 147.662,106.707 219.252,28.574 360.222 C 21.262 373.414,15.395 384.323,15.536 384.464 C 15.676 384.605,20.519 382.055,26.296 378.797 C 80.839 348.038,130.704 327.020,158.905 322.901 C 160.247 322.705,161.458 322.361,161.597 322.136 C 162.191 321.175,158.455 308.986,155.244 301.408 C 153.922 298.288,149.981 283.395,148.739 276.825 C 148.259 274.289,147.578 271.869,147.224 271.447 C 146.361 270.416,145.611 265.159,144.958 255.570 C 144.042 242.125,143.420 239.935,141.723 244.178 C 138.944 251.122,140.263 267.215,144.668 280.115 C 146.232 284.695,146.265 285.156,144.836 282.458 C 134.387 262.728,133.507 227.469,142.980 208.079 C 145.368 203.189,146.569 201.846,144.609 206.256 C 140.258 216.046,137.784 223.878,137.776 227.887 C 137.770 230.504,138.534 229.274,139.826 224.584 C 140.907 220.662,142.304 217.331,141.652 220.230 C 139.834 228.313,139.158 241.256,140.486 242.578 C 142.165 244.252,143.008 241.805,144.658 230.474 C 146.531 217.607,148.805 208.535,150.333 207.839 C 151.165 207.460,151.888 206.228,152.791 203.651 C 153.851 200.627,156.722 190.446,156.722 189.711 C 156.722 189.595,157.038 189.501,157.425 189.501 C 157.856 189.501,158.262 188.658,158.475 187.324 C 159.225 182.635,172.542 160.563,174.622 160.563 C 175.125 160.563,176.453 159.411,177.572 158.003 C 184.768 148.950,200.646 134.995,209.600 129.855 L 212.029 128.460 211.652 130.171 C 210.660 134.680,211.205 144.053,212.619 146.791 C 213.502 148.502,213.879 149.886,213.706 150.787 C 213.223 153.318,215.192 160.862,216.248 160.527 C 216.947 160.305,217.157 160.523,217.157 161.466 C 217.157 162.142,217.757 163.828,218.491 165.214 C 219.224 166.600,219.795 168.389,219.759 169.191 C 219.687 170.816,221.029 173.264,223.015 175.130 C 223.737 175.808,224.328 176.691,224.328 177.091 C 224.328 178.049,228.820 186.393,230.043 187.708 C 230.568 188.271,231.433 189.307,231.967 190.009 C 232.501 190.712,233.347 191.288,233.848 191.290 C 234.925 191.294,236.698 195.839,236.796 198.848 C 236.864 200.926,237.306 201.281,238.088 199.883 C 238.719 198.757,239.093 199.606,240.967 206.402 C 241.704 209.078,242.987 212.474,243.817 213.949 C 244.647 215.423,245.327 217.059,245.327 217.583 C 245.327 218.107,245.787 218.952,246.351 219.462 C 246.967 220.020,247.375 221.040,247.375 222.023 C 247.375 223.902,250.354 230.070,251.417 230.392 C 251.961 230.556,252.048 230.260,251.785 229.132 C 251.337 227.209,251.977 228.093,254.242 232.522 C 259.885 243.561,263.764 259.018,263.764 270.462 C 263.764 276.946,263.229 280.698,262.326 280.543 C 261.801 280.453,261.141 281.416,260.308 283.483 C 258.416 288.184,258.131 288.063,258.131 282.561 C 258.131 279.828,257.946 277.593,257.720 277.593 C 256.464 277.593,255.023 282.570,254.305 289.388 C 253.457 297.445,252.397 303.957,250.888 310.371 C 249.527 316.162,248.375 323.869,248.815 324.244 C 249.009 324.410,252.049 325.291,255.570 326.202 C 286.623 334.237,326.190 351.875,374.300 379.128 C 379.742 382.211,384.319 384.609,384.471 384.458 C 384.622 384.307,382.330 379.733,379.376 374.294 C 278.214 187.997,248.279 128.586,209.878 37.900 C 200.672 16.159,200.088 14.899,199.600 15.704 M196.494 168.225 C 194.176 169.051,192.618 170.425,190.227 173.752 C 188.043 176.789,188.223 176.780,192.746 173.627 C 200.509 168.216,201.821 166.326,196.494 168.225 M205.606 169.083 C 199.123 173.193,189.506 181.554,185.096 186.915 C 183.501 188.854,181.937 190.346,181.623 190.229 C 180.825 189.934,172.170 203.312,170.697 207.118 C 170.032 208.837,169.284 210.613,169.036 211.066 C 168.789 211.518,167.863 214.399,166.980 217.468 C 165.902 221.213,164.977 223.418,164.169 224.176 C 162.799 225.459,161.377 230.834,159.997 239.949 C 158.747 248.201,158.294 249.872,157.629 248.683 C 156.634 246.906,157.515 237.884,159.242 232.155 C 161.173 225.748,161.178 225.350,159.283 228.937 C 157.069 233.129,157.433 231.745,160.307 225.046 C 163.827 216.844,162.777 216.466,158.824 224.511 C 151.398 239.624,152.661 267.679,161.386 281.438 C 163.403 284.618,163.758 284.094,162.159 280.294 C 158.060 270.555,156.266 255.454,158.694 251.116 C 159.268 250.090,159.570 251.908,160.068 259.411 C 160.447 265.108,161.258 270.564,161.780 270.922 C 161.995 271.070,162.470 272.919,162.836 275.032 C 163.599 279.443,167.170 292.398,168.311 294.897 C 168.734 295.822,169.846 298.640,170.782 301.159 C 172.317 305.286,177.422 313.402,178.074 312.750 C 178.198 312.626,177.585 310.501,176.712 308.028 C 174.045 300.474,172.982 294.628,173.630 291.093 C 173.933 289.442,174.116 287.516,174.037 286.812 C 173.308 280.299,174.784 270.344,177.251 265.128 C 178.072 263.392,178.745 261.658,178.745 261.275 C 178.746 259.874,182.071 254.393,184.472 251.835 C 186.923 249.224,187.410 248.561,186.428 249.168 C 185.169 249.945,186.148 248.400,188.789 245.440 C 192.346 241.452,194.030 240.462,195.501 241.492 C 197.751 243.068,202.305 249.701,202.305 251.402 C 202.305 253.410,203.937 259.153,204.508 259.154 C 204.734 259.155,205.168 258.441,205.472 257.569 C 206.185 255.523,206.657 256.273,207.416 260.656 C 208.362 266.118,208.406 266.242,209.533 266.600 C 210.515 266.911,210.593 267.240,210.400 270.265 C 210.229 272.952,210.307 273.427,210.807 272.743 C 211.621 271.630,211.888 272.161,212.496 276.097 C 213.687 283.822,213.789 287.887,212.782 287.501 C 212.021 287.209,211.931 287.320,212.272 288.131 C 213.693 291.510,214.042 293.072,214.062 296.130 C 214.081 299.044,213.924 299.670,213.011 300.310 C 212.216 300.866,212.032 301.358,212.301 302.206 C 212.616 303.199,212.515 303.312,211.542 303.057 C 210.637 302.821,210.488 302.931,210.778 303.623 C 212.180 306.972,212.239 307.327,211.703 309.209 C 211.400 310.271,210.981 311.543,210.771 312.036 C 210.464 312.758,210.650 312.932,211.725 312.932 C 213.375 312.932,213.404 313.465,211.853 315.326 C 210.714 316.692,210.675 316.965,211.162 320.180 C 211.581 322.948,211.525 324.051,210.864 326.060 C 210.329 327.686,210.230 328.643,210.575 328.856 C 210.910 329.063,210.523 331.047,209.503 334.352 C 207.968 339.327,206.914 341.265,206.914 339.113 C 206.914 338.550,206.684 337.946,206.402 337.772 C 206.086 337.577,205.884 338.496,205.874 340.175 C 205.820 349.506,204.277 353.475,197.160 362.604 C 194.637 365.839,192.574 368.682,192.574 368.921 C 192.574 371.986,210.841 351.708,218.432 340.216 C 219.777 338.180,221.052 336.623,221.266 336.755 C 222.662 337.617,230.292 324.405,231.474 319.078 C 232.436 314.748,232.544 314.469,233.261 314.469 C 233.986 314.469,234.147 313.868,235.596 305.762 C 236.125 302.804,237.022 298.211,237.589 295.556 C 238.156 292.900,238.900 288.060,239.242 284.800 C 239.992 277.655,241.176 274.420,241.209 279.424 C 241.227 282.265,239.651 292.569,238.852 294.830 C 238.618 295.490,238.684 295.620,239.068 295.262 C 239.614 294.754,241.326 288.431,241.979 284.507 C 242.551 281.069,244.432 277.538,244.842 279.133 C 245.400 281.305,246.105 274.913,246.002 268.630 C 245.848 259.338,242.924 248.501,238.371 240.355 C 236.441 236.902,235.264 235.682,235.818 237.708 C 236.150 238.923,236.149 238.923,235.379 237.644 C 234.955 236.940,234.599 235.824,234.589 235.164 C 234.579 234.504,234.110 233.378,233.547 232.662 C 232.983 231.946,232.522 231.058,232.522 230.690 C 232.522 230.322,232.080 229.258,231.539 228.326 C 230.999 227.395,230.292 225.595,229.968 224.328 C 229.645 223.060,229.157 221.159,228.883 220.102 C 228.594 218.986,228.072 218.182,227.637 218.182 C 227.225 218.182,226.884 217.778,226.877 217.286 C 226.859 215.795,224.895 211.941,224.332 212.289 C 224.043 212.468,223.405 211.909,222.915 211.048 C 222.424 210.186,221.854 209.480,221.646 209.478 C 221.064 209.473,218.109 203.349,218.435 202.822 C 218.593 202.566,218.276 202.117,217.730 201.825 C 216.461 201.146,214.636 198.210,214.671 196.905 C 214.712 195.388,212.344 190.166,211.711 190.377 C 211.397 190.482,211.024 189.599,210.852 188.344 C 210.685 187.124,210.378 185.675,210.172 185.124 C 209.838 184.237,209.894 184.203,210.660 184.826 C 211.827 185.776,211.773 185.539,209.913 181.565 C 208.342 178.207,208.310 177.992,208.604 172.800 C 208.944 166.794,209.036 166.909,205.606 169.083 M217.361 192.776 C 217.705 196.938,222.791 202.762,222.791 198.995 C 222.791 198.544,223.305 197.984,223.932 197.752 C 225.045 197.341,225.035 197.310,223.496 196.515 C 221.984 195.733,219.993 193.733,218.031 191.025 C 217.114 189.760,217.112 189.765,217.361 192.776 M188.780 251.023 C 184.328 255.832,184.319 256.566,188.738 254.489 C 190.003 253.895,191.037 253.195,191.037 252.935 C 191.037 252.674,190.559 252.717,189.974 253.030 C 188.642 253.743,189.102 252.752,191.501 249.738 C 192.373 248.642,193.086 247.663,193.086 247.561 C 193.086 246.766,191.659 247.913,188.780 251.023 M179.258 267.485 C 178.178 269.927,175.555 280.719,175.947 281.111 C 176.265 281.429,178.744 275.698,178.749 274.633 C 178.751 274.148,179.194 271.909,179.733 269.657 C 180.872 264.896,180.717 264.187,179.258 267.485 M243.716 283.099 C 243.272 283.873,242.628 286.351,242.284 288.604 C 240.834 298.106,237.499 309.755,234.035 317.414 C 233.238 319.174,232.776 320.615,233.008 320.615 C 235.324 320.615,243.858 294.655,244.668 285.147 C 244.996 281.300,244.884 281.060,243.716 283.099 M261.938 291.037 C 260.544 301.094,255.171 322.561,254.303 321.543 C 254.227 321.455,255.038 317.926,256.103 313.700 C 257.168 309.475,258.606 302.661,259.297 298.558 C 260.421 291.891,261.264 288.860,261.996 288.860 C 262.130 288.860,262.104 289.840,261.938 291.037 M222.880 342.446 C 217.404 350.789,216.767 352.404,220.291 349.006 C 225.016 344.452,228.937 338.800,228.937 336.546 C 228.937 333.410,228.585 333.752,222.880 342.446 " stroke="none" fill="#000000" fill-rule="evenodd"></path></g></svg>